<svg id="visual" viewBox="0 0 960 540" width="960" height="540" xmlns="http://www.w3.org/2000/svg" xmlns:xlink="http://www.w3.org/1999/xlink" version="1.1"><g stroke-width="1" stroke-linejoin="bevel"><path d="M455.7 334L506.3 358L551.3 260Z" fill="#131b22" stroke="#131b22"></path><path d="M551.3 260L406.7 254L455.7 334Z" fill="#1e2328" stroke="#1e2328"></path><path d="M436.7 184L406.7 254L551.3 260Z" fill="#212529" stroke="#212529"></path><path d="M559.3 210L436.7 184L551.3 260Z" fill="#191f25" stroke="#191f25"></path><path d="M506.3 358L633 387L551.3 260Z" fill="#212529" stroke="#212529"></path><path d="M665 235L621 176L559.3 210Z" fill="#101921" stroke="#101921"></path><path d="M506.3 358L610 423L633 387Z" fill="#00101c" stroke="#00101c"></path><path d="M560.3 466L610 423L506.3 358Z" fill="#00101c" stroke="#00101c"></path><path d="M665 235L559.3 210L551.3 260Z" fill="#00101c" stroke="#00101c"></path><path d="M559.3 210L442.7 115L436.7 184Z" fill="#191f25" stroke="#191f25"></path><path d="M633 387L665 235L551.3 260Z" fill="#0d1720" stroke="#0d1720"></path><path d="M299 364L446.7 462L455.7 334Z" fill="#101921" stroke="#101921"></path><path d="M455.7 334L446.7 462L506.3 358Z" fill="#04131d" stroke="#04131d"></path><path d="M446.7 462L560.3 466L506.3 358Z" fill="#09151e" stroke="#09151e"></path><path d="M566.3 95L442.7 115L559.3 210Z" fill="#09151e" stroke="#09151e"></path><path d="M436.7 184L345 178L406.7 254Z" fill="#161d23" stroke="#161d23"></path><path d="M350 111L345 178L436.7 184Z" fill="#09151e" stroke="#09151e"></path><path d="M406.7 254L299 364L455.7 334Z" fill="#1e2328" stroke="#1e2328"></path><path d="M614 98L566.3 95L621 176Z" fill="#1b2126" stroke="#1b2126"></path><path d="M621 176L566.3 95L559.3 210Z" fill="#09151e" stroke="#09151e"></path><path d="M345 178L290 281L406.7 254Z" fill="#212529" stroke="#212529"></path><path d="M290 281L299 364L406.7 254Z" fill="#212529" stroke="#212529"></path><path d="M731.7 462L716.7 354L633 387Z" fill="#0d1720" stroke="#0d1720"></path><path d="M633 387L716.7 354L665 235Z" fill="#0d1720" stroke="#0d1720"></path><path d="M731.7 462L633 387L610 423Z" fill="#0d1720" stroke="#0d1720"></path><path d="M729.7 156L621 176L665 235Z" fill="#00101c" stroke="#00101c"></path><path d="M729.7 156L614 98L621 176Z" fill="#00101c" stroke="#00101c"></path><path d="M460.7 0L350 111L442.7 115Z" fill="#04131d" stroke="#04131d"></path><path d="M442.7 115L350 111L436.7 184Z" fill="#0d1720" stroke="#0d1720"></path><path d="M207.3 196L235.3 275L290 281Z" fill="#04131d" stroke="#04131d"></path><path d="M446.7 462L511.3 540L560.3 466Z" fill="#191f25" stroke="#191f25"></path><path d="M651 540L731.7 462L610 423Z" fill="#161d23" stroke="#161d23"></path><path d="M391.7 540L511.3 540L446.7 462Z" fill="#131b22" stroke="#131b22"></path><path d="M235.3 356L285 433L299 364Z" fill="#04131d" stroke="#04131d"></path><path d="M299 364L285 433L446.7 462Z" fill="#161d23" stroke="#161d23"></path><path d="M779.7 253L729.7 156L665 235Z" fill="#1b2126" stroke="#1b2126"></path><path d="M337 540L391.7 540L446.7 462Z" fill="#131b22" stroke="#131b22"></path><path d="M207.3 196L290 281L345 178Z" fill="#1b2126" stroke="#1b2126"></path><path d="M290 281L235.3 356L299 364Z" fill="#00101c" stroke="#00101c"></path><path d="M235.3 275L235.3 356L290 281Z" fill="#212529" stroke="#212529"></path><path d="M716.7 354L779.7 253L665 235Z" fill="#1e2328" stroke="#1e2328"></path><path d="M651 540L610 423L560.3 466Z" fill="#04131d" stroke="#04131d"></path><path d="M716.7 354L881.3 328L779.7 253Z" fill="#00101c" stroke="#00101c"></path><path d="M511.3 540L651 540L560.3 466Z" fill="#131b22" stroke="#131b22"></path><path d="M285 433L337 540L446.7 462Z" fill="#00101c" stroke="#00101c"></path><path d="M219.3 479L337 540L285 433Z" fill="#1e2328" stroke="#1e2328"></path><path d="M626 0L508.3 0L566.3 95Z" fill="#1e2328" stroke="#1e2328"></path><path d="M566.3 95L508.3 0L442.7 115Z" fill="#161d23" stroke="#161d23"></path><path d="M626 0L566.3 95L614 98Z" fill="#131b22" stroke="#131b22"></path><path d="M508.3 0L460.7 0L442.7 115Z" fill="#1b2126" stroke="#1b2126"></path><path d="M201.3 127L207.3 196L345 178Z" fill="#212529" stroke="#212529"></path><path d="M235.3 275L136.7 254L235.3 356Z" fill="#09151e" stroke="#09151e"></path><path d="M201.3 127L345 178L350 111Z" fill="#101921" stroke="#101921"></path><path d="M771.7 69L626 0L614 98Z" fill="#04131d" stroke="#04131d"></path><path d="M72.7 415L219.3 479L235.3 356Z" fill="#04131d" stroke="#04131d"></path><path d="M235.3 356L219.3 479L285 433Z" fill="#161d23" stroke="#161d23"></path><path d="M312 0L201.3 127L350 111Z" fill="#1e2328" stroke="#1e2328"></path><path d="M207.3 196L136.7 254L235.3 275Z" fill="#191f25" stroke="#191f25"></path><path d="M651 540L754.7 540L731.7 462Z" fill="#101921" stroke="#101921"></path><path d="M731.7 462L881.3 328L716.7 354Z" fill="#09151e" stroke="#09151e"></path><path d="M856.3 150L771.7 69L729.7 156Z" fill="#101921" stroke="#101921"></path><path d="M729.7 156L771.7 69L614 98Z" fill="#161d23" stroke="#161d23"></path><path d="M460.7 0L312 0L350 111Z" fill="#09151e" stroke="#09151e"></path><path d="M74.7 193L136.7 254L207.3 196Z" fill="#191f25" stroke="#191f25"></path><path d="M892.3 476L881.3 328L731.7 462Z" fill="#161d23" stroke="#161d23"></path><path d="M779.7 253L856.3 150L729.7 156Z" fill="#0d1720" stroke="#0d1720"></path><path d="M891.3 244L856.3 150L779.7 253Z" fill="#131b22" stroke="#131b22"></path><path d="M881.3 328L891.3 244L779.7 253Z" fill="#191f25" stroke="#191f25"></path><path d="M72.7 415L184.3 540L219.3 479Z" fill="#0d1720" stroke="#0d1720"></path><path d="M219.3 479L184.3 540L337 540Z" fill="#101921" stroke="#101921"></path><path d="M754.7 540L828.3 540L731.7 462Z" fill="#101921" stroke="#101921"></path><path d="M828.3 0L780.7 0L771.7 69Z" fill="#00101c" stroke="#00101c"></path><path d="M771.7 69L780.7 0L626 0Z" fill="#1b2126" stroke="#1b2126"></path><path d="M960 147L874.3 102L856.3 150Z" fill="#00101c" stroke="#00101c"></path><path d="M856.3 150L874.3 102L771.7 69Z" fill="#212529" stroke="#212529"></path><path d="M828.3 540L892.3 476L731.7 462Z" fill="#212529" stroke="#212529"></path><path d="M881.3 328L960 270L891.3 244Z" fill="#161d23" stroke="#161d23"></path><path d="M312 0L187.3 0L201.3 127Z" fill="#04131d" stroke="#04131d"></path><path d="M96.7 122L74.7 193L207.3 196Z" fill="#101921" stroke="#101921"></path><path d="M136.7 254L72.7 380L235.3 356Z" fill="#212529" stroke="#212529"></path><path d="M0 283L72.7 380L136.7 254Z" fill="#101921" stroke="#101921"></path><path d="M874.3 102L828.3 0L771.7 69Z" fill="#09151e" stroke="#09151e"></path><path d="M96.7 122L207.3 196L201.3 127Z" fill="#00101c" stroke="#00101c"></path><path d="M187.3 0L96.7 122L201.3 127Z" fill="#161d23" stroke="#161d23"></path><path d="M72.7 380L72.7 415L235.3 356Z" fill="#04131d" stroke="#04131d"></path><path d="M960 398L960 270L881.3 328Z" fill="#101921" stroke="#101921"></path><path d="M891.3 244L960 147L856.3 150Z" fill="#04131d" stroke="#04131d"></path><path d="M874.3 102L960 58L828.3 0Z" fill="#09151e" stroke="#09151e"></path><path d="M892.3 476L960 398L881.3 328Z" fill="#101921" stroke="#101921"></path><path d="M892.3 476L960 414L960 398Z" fill="#09151e" stroke="#09151e"></path><path d="M960 540L960 414L892.3 476Z" fill="#00101c" stroke="#00101c"></path><path d="M960 270L960 147L891.3 244Z" fill="#00101c" stroke="#00101c"></path><path d="M72.7 415L84.7 540L184.3 540Z" fill="#09151e" stroke="#09151e"></path><path d="M187.3 0L115.7 0L96.7 122Z" fill="#101921" stroke="#101921"></path><path d="M0 182L0 283L74.7 193Z" fill="#00101c" stroke="#00101c"></path><path d="M0 182L74.7 193L96.7 122Z" fill="#1b2126" stroke="#1b2126"></path><path d="M74.7 193L0 283L136.7 254Z" fill="#131b22" stroke="#131b22"></path><path d="M72.7 380L0 447L72.7 415Z" fill="#0d1720" stroke="#0d1720"></path><path d="M72.7 415L0 447L84.7 540Z" fill="#04131d" stroke="#04131d"></path><path d="M0 283L0 341L72.7 380Z" fill="#09151e" stroke="#09151e"></path><path d="M960 147L960 58L874.3 102Z" fill="#09151e" stroke="#09151e"></path><path d="M828.3 540L960 540L892.3 476Z" fill="#101921" stroke="#101921"></path><path d="M0 60L0 182L96.7 122Z" fill="#0d1720" stroke="#0d1720"></path><path d="M0 341L0 447L72.7 380Z" fill="#212529" stroke="#212529"></path><path d="M960 58L960 0L828.3 0Z" fill="#00101c" stroke="#00101c"></path><path d="M115.7 0L0 60L96.7 122Z" fill="#191f25" stroke="#191f25"></path><path d="M0 447L0 540L84.7 540Z" fill="#161d23" stroke="#161d23"></path><path d="M115.7 0L0 0L0 60Z" fill="#191f25" stroke="#191f25"></path></g></svg>